<?xml version="1.0" standalone="yes"?>
<svg xmlns="http://www.w3.org/2000/svg" width="1155" height="819">
<path style="fill:#01e3ff; stroke:none;" d="M0 0L0 600L59 600L59 597L54 597L54 587L59 587L59 583L68 583L68 568L73 568L73 558L78 558L78 554L83 554L83 544L88 544L88 539L93 539L93 534L98 534L98 524L102 524L102 520L107 520L107 515L112 515L112 495L117 495L117 491L107 491L107 486L102 486L102 481L112 481L112 471L107 471L107 466L102 466L102 462L127 462L127 457L161 457L161 462L185 462L185 466L194 466L194 471L199 471L199 476L204 476L204 486L209 486L209 515L204 515L204 524L199 524L199 520L194 520L194 529L190 529L190 534L185 534L185 539L165 539L165 554L170 554L170 558L175 558L175 563L180 563L180 587L175 587L175 592L161 592L161 597L151 597L151 600L1037 600C1037.72 586.91 1049.13 592.986 1058 593L1122 593C1122.48 578.207 1144.55 583 1155 583L1155 0L1081 0C1085.03 6.79352 1085 12.2617 1085 20C1085 27.4162 1087.54 40.6449 1082.35 46.6559C1077.45 52.3214 1065.71 50 1059 50L995 50L993 67C1000.97 68.0076 1020.87 68.5363 1023.57 78.0185C1025.69 85.4815 1018.22 98.2089 1023.94 104.392C1027.83 108.601 1034.08 100.827 1039 103.647C1049.73 109.802 1061.43 124.598 1067.94 135C1093.84 176.438 1052.79 227.909 1009 230.911C961.331 234.178 915.023 221.249 869 210.888C854.17 207.55 834.545 213.224 822.093 202.61C819.393 200.307 817.355 197.218 815.905 194C814.76 191.457 814.105 188.737 813.616 186C810.176 166.751 832.285 168.071 837.991 154C843.704 139.909 817.876 114.71 839.001 106.563C841.842 105.468 845.003 104.921 848 104.438C852.271 103.751 856.681 103.185 861 103L861 102C848.005 99.3177 835.17 94.8916 822 93.1589C812.463 91.9042 800.786 93.8714 792.004 89.5972C784.392 85.8926 779.621 76.4282 780.854 68C782.591 56.1307 799.214 56.6118 801.226 45C803.123 34.0508 787.542 19.3182 799.058 10.5139C814.856 -1.56494 845.979 18.274 856 0L0 0z"/>
<path style="fill:#e5eaed; stroke:none;" d="M861 102L861 103C856.657 103.09 852.301 103.675 848 104.286C845 104.711 841.882 105.269 839.001 106.224C817.135 113.472 843.349 139.716 837.991 153C834.248 162.277 823.738 163.78 817.34 170.329C809.299 178.56 813.285 195.545 821.185 202.61C833.216 213.368 853.436 207.609 868 210.888C914.761 221.415 961.622 234.227 1010 230.911C1053.27 227.945 1093.33 177.365 1069.14 136C1062.96 125.432 1050.27 108.342 1039 103.043C1034.15 100.76 1028.48 107.578 1024.56 104.342C1018.19 99.0729 1025.69 84.2343 1023.57 77.0548C1021 68.3669 1000.42 67.5858 993 67L995 50L1054 50C1061.39 50 1073.08 52.2074 1079.9 49.142C1089.2 44.9565 1085.04 20.4508 1085 12C1084.98 7.92676 1084.93 3.30188 1080.89 1.02777C1076.32 -1.54315 1068.09 0 1063 0L1021 0L912 0C895.001 0 875.786 -2.53259 859.015 0.148132C853.219 1.07471 850.54 6.76703 844 7.55707C832.157 8.98767 800.748 -1.29224 795.047 15.0046C791.225 25.9293 804.802 36.0722 800.308 46.9962C797.419 54.0188 789.174 55.3698 784.228 60.3287C777.621 66.9524 780.413 80.3572 786.529 86.4707C793.715 93.6538 803.96 91.3088 813 92.1697C829.372 93.729 844.794 99.8177 861 102M51 4.46838C37.019 7.18347 41.9993 30.2527 42 41C42.0003 46.1307 41.3428 52.8506 47.0941 55.2577C51.5996 57.1434 58.2027 56 63 56L96 56L213 56L250 56C254.729 56 261.621 57.2247 265.891 54.821C271.073 51.9041 270 45.0137 270 40C270 29.3625 274.854 7.15875 261 4.46838C249.969 2.32623 237.221 4 226 4L156 4L86 4C74.7785 4 62.0309 2.32623 51 4.46838M374.001 6.48303C361.141 9.30615 365.996 34.0372 366 44C366.002 48.962 365.52 55.0067 371.044 57.2577C378.078 60.1243 389.47 58 397 58L456 58L661 58L727 58C733.638 58 746.149 60.3875 751.656 56.1065C755.909 52.7998 755 46.7539 755 42C755 31.5719 759.851 8.83453 746 6.32947C722.849 2.14233 695.549 6 672 6L519 6L421 6C406.21 6 388.453 3.31049 374.001 6.48303z"/>
<path style="fill:#f1902f; stroke:none;" d="M974.004 8.65277C964.044 11.8195 963.259 36.4099 973.015 40.2577C978.654 42.4814 987.015 41 993 41L1036 41C1042.58 41 1051.81 42.6333 1057.96 39.9907C1067.7 35.8031 1066.64 12.6407 1057 8.89349C1050.44 6.34528 1040.94 8 1034 8L994 8C987.787 8 979.977 6.75348 974.004 8.65277M159.015 14.6528C148.374 18.0961 148.999 42.3687 159.005 46.2577C164.676 48.4623 172.99 47 179 47L221 47C227.64 47 236.759 48.5925 242.985 45.9907C252.008 42.2193 252.309 18.4198 242.985 14.7423C236.594 12.222 226.799 14 220 14L179 14C172.811 14 164.957 12.7303 159.015 14.6528M876 14L876 18L877 18L876 14z"/>
<path style="fill:#43618b; stroke:none;" d="M877 14L877 18L883 18L883 35L886 35L886 18L892 18L892 14L877 14z"/>
<path style="fill:#f1902f; stroke:none;" d="M892 14L892 18L893 18L892 14z"/>
<path style="fill:#43618b; stroke:none;" d="M894 14L894 17L898 17L898 14L894 14z"/>
<path style="fill:#e5eaed; stroke:none;" d="M999 20C1001.42 19.6201 1004.25 17.3267 1006.55 17.4653C1013.01 17.8542 999.918 32.3 999 35L1014 35C1011.67 31.4024 1007.99 32.0031 1004 32C1007.33 28.9243 1012.13 25.8826 1012.73 21.0031C1013.93 11.1476 1001.97 13.6105 999 20M1019 22C1021.95 15.97 1024.63 18.2507 1030 19C1022.97 6.47351 1012.63 21.3259 1016.74 30.8912C1018.77 35.6065 1026.12 36.2354 1028.82 31.7716C1033.35 24.2921 1025.15 20.2026 1019 22z"/>
<path style="fill:#f1902f; stroke:none;" d="M643.018 16.7423C633.752 20.424 634.081 44.14 643.043 47.9907C648.707 50.424 656.949 49 663 49L707 49C713.436 49 723.09 50.7679 728.895 47.5432C736.964 43.061 736.908 20.2618 727.985 16.7423C722.346 14.5187 713.984 16 708 16L665 16C658.486 16 649.14 14.3101 643.018 16.7423z"/>
<path style="fill:#43618b; stroke:none;" d="M894 19L894 35L898 35L898 19L894 19M902 19L902 35L905 35C905.036 22.0236 911 21.8672 911 35L914 35C914.036 22.0236 920 21.8672 920 35L923 35C923 24.7258 918.984 12.3208 906 21L902 19M940 33L931 28L941 28C940.727 26.2865 940.561 24.6315 939.682 23.0841C931.889 9.36261 918.931 35.7136 934.975 34.7385C936.873 34.6231 938.333 33.8008 940 33z"/>
<path style="fill:#f1902f; stroke:none;" d="M936 19L937 20L936 19z"/>
<path style="fill:#43618b; stroke:none;" d="M65 20L65 41L68 41L68 20L65 20M73 20L73 23L76 23L76 20L73 20z"/>
<path style="fill:#e5eaed; stroke:none;" d="M200 20L195 28L200 26L200 41L203 41L203 20L200 20z"/>
<path style="fill:#f1902f; stroke:none;" d="M913 20L914 21L913 20M389 22L389 43L390 43L389 22z"/>
<path style="fill:#43618b; stroke:none;" d="M390 22L390 43L393 43L393 22L390 22M398 22L398 25L401 25L401 22L398 22z"/>
<path style="fill:#f1902f; stroke:none;" d="M466 22L467 23L466 22z"/>
<path style="fill:#43618b; stroke:none;" d="M465 43L468 43C468 38.4304 466.776 32.7385 471 30L471 27L468 25L472 25L472 22C460.199 22.6537 465 34.7449 465 43M538 22L538 25L542 25L542 22L538 22z"/>
<path style="fill:#f1902f; stroke:none;" d="M550 22L551 23L550 22M588 22L588 43L589 43L588 22z"/>
<path style="fill:#43618b; stroke:none;" d="M589 22L589 43L592 43C592.001 29.9621 598 29.8273 598 43L602 43C602 35.4716 602.926 23.8375 592 29L592 22L589 22M606 22L606 25L610 25L610 22L606 22z"/>
<path style="fill:#e5eaed; stroke:none;" d="M678 28C687.799 25.2935 685.705 25.7341 683 34C685.949 34.2949 690.344 37.9855 685.176 39.4313C683 40.04 680.078 37.6091 678 37C681.282 48.3145 697.324 40.184 689 32C693.939 22.537 681.347 18.4734 678 28M931 25L937 25C935.042 22.0057 932.958 22.0057 931 25z"/>
<path style="fill:#43618b; stroke:none;" d="M554 40C549.189 36.8807 552.162 28.288 551 23C540.19 26.3669 549.221 47.2622 554 40z"/>
<path style="fill:#f1902f; stroke:none;" d="M923 23L923 35L924 35L923 23M927 23L928 24L927 23M1022.19 24.0602C1017.8 24.8296 1019.68 33.0452 1023.81 31.6544C1027.64 30.368 1026.32 23.3341 1022.19 24.0602M940 24L941 25L940 24z"/>
<path style="fill:#43618b; stroke:none;" d="M73 25L73 41L76 41L76 25L73 25M79 25L85 41C91.0225 39.1036 92.4789 30.5727 94 25L90 25L87 35C84.7551 30.7411 84.2717 25.9126 79 25M109 39L100 34L110 34C109.727 32.2865 109.561 30.6315 108.682 29.0841C100.889 15.3626 87.931 41.7136 103.975 40.7385C105.873 40.6231 107.333 39.8008 109 39z"/>
<path style="fill:#f1902f; stroke:none;" d="M105 25L106 26L105 25M115 25L116 26L115 25z"/>
<path style="fill:#43618b; stroke:none;" d="M122 36L122 37L112 37C115.06 40.4675 126.238 43.3884 124.623 35.118C123.923 31.5295 118.344 30.4651 116 28L121 30L125 29C121.754 25.104 109.47 24.3196 113.288 31.5849C114.74 34.3477 119.302 35.1197 122 36z"/>
<path style="fill:#f1902f; stroke:none;" d="M464.333 25.6667L464.667 26.3333L464.333 25.6667M468 25L469 26L468 25M123 26L124 27L123 26M905 26L905 35L906 35L905 26M914 26L914 35L915 35L914 26M89 27L90 28L89 27z"/>
<path style="fill:#43618b; stroke:none;" d="M398 27L398 43L401 43L401 27L398 27M404 27C405.327 32.5986 407.018 41.1164 413 43L419 27C413.728 27.9126 413.245 32.7411 411 37L408 27L404 27M434 41L425 36L435 36C434.727 34.2866 434.561 32.6315 433.682 31.0841C425.889 17.3625 412.931 43.7136 428.975 42.7385C430.873 42.6231 432.333 41.8008 434 41z"/>
<path style="fill:#f1902f; stroke:none;" d="M430 27L431 28L430 27z"/>
<path style="fill:#43618b; stroke:none;" d="M447 38L447 39L437 39C439.826 43.1531 450.91 45.0054 449.573 37.1983C448.975 33.707 443.269 32.3933 441 30L446 32L450 31C446.679 27.0132 434.185 26.2607 438.238 33.5818C439.762 36.335 444.264 37.1075 447 38z"/>
<path style="fill:#f1902f; stroke:none;" d="M462 27L462 30L463 30L462 27z"/>
<path style="fill:#43618b; stroke:none;" d="M474 27L474 43L477 43C477.004 36.6284 477.196 32.5383 483 29L483 28L478 29L474 27z"/>
<path style="fill:#f1902f; stroke:none;" d="M482 27L483 28L482 27z"/>
<path style="fill:#43618b; stroke:none;" d="M489.044 27.7577C480.247 31.0484 484.875 45.5809 493.981 42.2423C502.94 38.9575 498.2 24.3329 489.044 27.7577z"/>
<path style="fill:#f1902f; stroke:none;" d="M494 27L495 28L494 27z"/>
<path style="fill:#43618b; stroke:none;" d="M502 27L502 43L506 43C506.001 37.7167 505.058 31.8767 511 30L511 43L515 43C515.001 37.7167 514.058 31.8767 520 30L520 43L524 43C524 33.1447 519.542 19.9009 507 29L502 27z"/>
<path style="fill:#f1902f; stroke:none;" d="M512 27L513 28L512 27M521 27L522 28L521 27z"/>
<path style="fill:#43618b; stroke:none;" d="M538 27L538 43L542 43L542 27L538 27z"/>
<path style="fill:#f1902f; stroke:none;" d="M553 27L553 30L554 30L553 27M558 27L559 28L558 27z"/>
<path style="fill:#43618b; stroke:none;" d="M556 29L556 31L564 31L564 33C561.46 33.6667 557.593 33.9988 556.047 36.429C552.56 41.9126 560.672 43.231 564 41L565 41L569 43C566.999 34.5953 568.521 22.9828 556 29z"/>
<path style="fill:#f1902f; stroke:none;" d="M574 27L575 28L574 27z"/>
<path style="fill:#43618b; stroke:none;" d="M581 38L581 39L571 39C574.06 42.4674 585.238 45.3884 583.623 37.118C582.923 33.5293 577.344 32.4652 575 30L580 32L584 31C580.754 27.1039 568.47 26.3196 572.288 33.5849C573.74 36.3477 578.302 37.1197 581 38M606 27L606 43L610 43L610 27L606 27z"/>
<path style="fill:#e5eaed; stroke:none;" d="M100 31L106 31C104.042 28.0056 101.958 28.0057 100 31z"/>
<path style="fill:#f1902f; stroke:none;" d="M112 28L113 29L112 28M120 28L121 29L120 28M414 28L415 29L414 28M438 28L439 29L438 28M477 28L478 29L477 28M506 28L507 29L506 28M582 28L583 29L582 28M84 29L85 30L84 29M92 29L93 30L92 29M96 29L97 30L96 29M408 29L409 30L408 29M497 29L498 30L497 29M523 29L524 30L523 29M567 29L568 30L567 29M88 30L89 31L88 30M109 30L110 31L109 30M117 30L118 31L117 30M417 30L418 31L417 30z"/>
<path style="fill:#e5eaed; stroke:none;" d="M425 33L431 33C429.042 30.0056 426.958 30.0056 425 33z"/>
<path style="fill:#f1902f; stroke:none;" d="M445 30L446 31L445 30M464 30L464 43L465 43L464 30z"/>
<path style="fill:#e5eaed; stroke:none;" d="M490.302 31.0864C486.322 33.3822 489.07 41.6143 493.49 38.9136C497.277 36.5999 494.904 28.4324 490.302 31.0864z"/>
<path style="fill:#f1902f; stroke:none;" d="M507 30L508 31L507 30M516 30L517 31L516 30M519 30L520 31L519 30M555 30L556 31L555 30M571 30L572 31L571 30M579 30L580 31L579 30M81 31L82 32L81 31M413 31L414 32L413 31M421 31L422 32L421 31M557 31L558 32L557 31M938 31L939 32L938 31M85 32L86 33L85 32M409 32L410 33L409 32M434 32L435 33L434 32M576 32L577 33L576 32M592 32L593 33L592 32M928 32L929 33L928 32M87 33L88 34L87 33M416 33L417 34L416 33M437 33L438 34L437 33z"/>
<path style="fill:#43618b; stroke:none;" d="M454 33L454 37L461 37L461 33L454 33z"/>
<path style="fill:#f1902f; stroke:none;" d="M477.333 33.6667L477.667 34.3333L477.333 33.6667z"/>
<path style="fill:#43618b; stroke:none;" d="M528 33L528 37L536 37L536 33L528 33z"/>
<path style="fill:#f1902f; stroke:none;" d="M562 33L563 34L562 33M929 33L930 34L929 33M406 34L407 35L406 34M412 34L413 35L412 34M448 34L449 35L448 34M125.333 35.6667L125.667 36.3333L125.333 35.6667M410 35L411 36L410 35z"/>
<path style="fill:#e5eaed; stroke:none;" d="M559 36C560.53 40.6046 563.312 39.129 564 35L559 36z"/>
<path style="fill:#f1902f; stroke:none;" d="M495 36L496 37L495 36M107 37L108 38L107 37M584.333 37.6667L584.667 38.3333L584.333 37.6667M97 38L98 39L97 38M440 38L441 39L440 38M484 38L485 39L484 38M84 39L85 40L84 39M98 39L99 40L98 39M113 39L114 40L113 39M432 39L433 40L432 39M441 39L442 40L441 39M559 39L560 40L559 39M88 40L89 41L88 40M115 40L116 41L115 40M422 40L423 41L422 40M437 40L438 41L437 40M449 40L450 41L449 40M413 41L414 42L413 41M423 41L424 42L423 41M547 41L548 42L547 41M564 41L565 42L564 41M572 41L573 42L572 41M409 42L410 43L409 42M440 42L441 43L440 42M494 42L495 43L494 42M553 42L554 43L553 42M557 42L558 43L557 42M574 42L575 43L574 42z"/>
<path style="fill:#e5eaed; stroke:none;" d="M626 113.424C613.518 115.083 599.888 115.739 589 122.699C574.697 131.843 563.617 147.729 546 150.56C530.862 152.993 515.477 147.992 500 150.272C494.58 151.07 487.481 151.489 483.879 156.214C473.654 169.625 494.531 185.142 489.258 199C485.888 207.854 475.546 209.745 469.214 215.529C461.811 222.291 463.485 235.022 467.905 242.999C477.494 260.306 501.952 253.381 518 256.666C567.315 266.759 618.093 283.545 669 275.866C710.998 269.53 743.308 216.905 718.455 179C712.219 169.488 700.425 153.946 690 149.043C685.317 146.841 679.34 153.555 675.739 150.342C669.251 144.552 677.543 129.621 674.258 122.133C672.506 118.142 666.781 117.163 663 116.155C651.254 113.023 638.084 111.818 626 113.424z"/>
<path style="fill:#5e3305; stroke:none;" d="M809 359L809 364L800 364L800 369L795 369L795 374L791 374L791 411L786 411L786 420L782 420L782 425L791 425L791 420L795 420L795 415L800 415L800 425L804 425L804 429L809 429L809 439L813 439L813 434L818 434L818 429L822 429L822 425L827 425L827 420L831 420L831 429L827 429L827 439L822 439L822 443L840 443L840 448L854 448L854 453L858 453L858 457L867 457L867 462L876 462L876 467L880 467L880 472L894 472L894 476L889 476L889 481L885 481L885 486L880 486L880 495L876 495L876 514L880 514L880 518L885 518L885 523L889 523L889 528L898 528L898 532L907 532L907 537L916 537L916 541L930 541L930 546L952 546L952 541L948 541L948 532L943 532L943 518L948 518L948 523L952 523L952 528L956 528L956 532L961 532L961 537L975 537L975 546L979 546L979 555L984 555L984 546L988 546L988 528L993 528L993 532L997 532L997 551L993 551L993 555L988 555L988 560L984 560L984 570L1006 570L1006 565L1015 565L1015 560L1019 560L1019 555L1024 555L1024 541L1029 541L1029 523L1024 523L1024 518L1015 518L1015 505L1010 505L1010 500L1006 500L1006 495L1001 495L1001 490L993 490L993 486L984 486L984 481L979 481L979 476L975 476L975 472L970 472L970 462L966 462L966 457L970 457L970 453L975 453L975 443L979 443L979 434L984 434L984 406L979 406L979 411L975 411L975 415L966 415L966 420L952 420L952 415L948 415L948 411L934 411L934 406L912 406L912 402L898 402L898 397L889 397L889 392L876 392L876 383L872 383L872 378L867 378L867 374L863 374L863 369L854 369L854 364L840 364L840 359L809 359z"/>
<path style="fill:#f1902f; stroke:none;" d="M800 388L800 392L804 392L804 388L800 388z"/>
<path style="fill:#e5eaed; stroke:none;" d="M804 388L804 392L809 392L809 397L813 397L813 392L809 392L809 388L804 388z"/>
<path style="fill:#43618b; stroke:none;" d="M804 392L804 402L809 402L809 392L804 392z"/>
<path style="fill:#e5eaed; stroke:none;" d="M800 397L800 402L804 402L804 397L800 397z"/>
<path style="fill:#f1902f; stroke:none;" d="M813 402L813 411L809 411L809 406L804 406L804 411L809 411L809 415L804 415L804 420L809 420L809 425L813 425L813 420L818 420L818 415L813 415L813 411L818 411L818 402L813 402z"/>
<path style="fill:#e5eaed; stroke:none;" d="M804 411L804 415L809 415L809 411L804 411z"/>
<path style="fill:#f1902f; stroke:none;" d="M827 420L827 425L822 425L822 429L831 429L831 420L827 420z"/>
<path style="fill:#5e3305; stroke:none;" d="M127 457L127 462L102 462L102 466L107 466L107 471L112 471L112 481L102 481L102 486L107 486L107 491L117 491L117 495L112 495L112 515L107 515L107 520L102 520L102 524L98 524L98 534L93 534L93 539L88 539L88 544L83 544L83 554L78 554L78 558L73 558L73 568L68 568L68 583L59 583L59 587L54 587L54 597L59 597L59 601L0 601L0 819L1155 819L1155 584C1145.37 584 1119.52 578.801 1123 594C1101.31 594 1079.72 593.008 1058 593C1049.86 592.997 1035.03 587.127 1038 601L151 601L151 597L161 597L161 592L175 592L175 587L180 587L180 563L175 563L175 558L170 558L170 554L165 554L165 534L170 534L170 539L185 539L185 534L190 534L190 529L194 529L194 520L199 520L199 524L204 524L204 515L209 515L209 486L204 486L204 476L199 476L199 471L194 471L194 466L185 466L185 462L161 462L161 457L127 457z"/>
<path style="fill:#43618b; stroke:none;" d="M141 462L141 466L127 466L127 471L131 471L131 476L122 476L122 481L131 481L131 486L136 486L136 481L146 481L146 486L141 486L141 491L146 491L146 486L156 486L156 481L161 481L161 491L156 491L156 500L151 500L151 495L141 495L141 500L151 500L151 505L194 505L194 510L204 510L204 491L199 491L199 481L194 481L194 476L190 476L190 471L180 471L180 466L170 466L170 471L165 471L165 466L156 466L156 462L141 462z"/>
<path style="fill:#e5eaed; stroke:none;" d="M180 466L180 471L185 471L185 466L180 466M190 471L190 476L194 476L194 471L190 471z"/>
<path style="fill:#5e3305; stroke:none;" d="M131 476L131 481L136 481L136 476L131 476M161 476L161 481L165 481L165 476L161 476M185 476L185 481L175 481L175 486L170 486L170 491L165 491L165 495L161 495L161 500L165 500L165 495L170 495L170 491L175 491L175 486L190 486L190 491L194 491L194 486L190 486L190 476L185 476z"/>
<path style="fill:#e5eaed; stroke:none;" d="M194 476L194 481L199 481L199 476L194 476M199 486L199 491L204 491L204 486L199 486z"/>
<path style="fill:#f1902f; stroke:none;" d="M180 491L180 495L175 495L175 500L180 500L180 495L185 495L185 491L180 491z"/>
<path style="fill:#e5eaed; stroke:none;" d="M185 491L185 495L180 495L180 500L194 500L194 495L190 495L190 491L185 491z"/>
<path style="fill:#f1902f; stroke:none;" d="M190 491L190 495L194 495L194 491L190 491z"/>
<path style="fill:#43618b; stroke:none;" d="M127 495L127 500L117 500L117 515L122 515L122 520L127 520L127 524L136 524L136 534L127 534L127 529L122 529L122 524L117 524L117 520L112 520L112 524L107 524L107 534L102 534L102 539L98 539L98 544L93 544L93 549L88 549L88 558L83 558L83 563L78 563L78 573L88 573L88 578L73 578L73 587L64 587L64 597L73 597L73 602L78 602L78 607L83 607L83 602L78 602L78 597L73 597L73 592L88 592L88 597L98 597L98 602L112 602L112 597L122 597L122 612L127 612L127 621L131 621L131 617L136 617L136 607L131 607L131 602L136 602L136 597L146 597L146 592L156 592L156 583L151 583L151 587L146 587L146 592L136 592L136 597L122 597L122 592L131 592L131 573L122 573L122 568L112 568L112 563L117 563L117 554L107 554L107 549L112 549L112 544L117 544L117 549L131 549L131 544L136 544L136 554L146 554L146 549L151 549L151 539L161 539L161 534L156 534L156 529L151 529L151 524L141 524L141 515L136 515L136 510L131 510L131 505L127 505L127 500L136 500L136 495L127 495M948 495L948 500L952 500L952 495L948 495z"/>
<path style="fill:#f1902f; stroke:none;" d="M146 505L146 515L151 515L151 520L156 520L156 515L151 515L151 505L146 505z"/>
<path style="fill:#5e3305; stroke:none;" d="M151 505L151 515L165 515L165 510L170 510L170 505L151 505z"/>
<path style="fill:#f1902f; stroke:none;" d="M170 505L170 510L165 510L165 515L161 515L161 524L165 524L165 529L170 529L170 524L165 524L165 520L175 520L175 515L170 515L170 510L175 510L175 505L170 505z"/>
<path style="fill:#e5eaed; stroke:none;" d="M170 510L170 515L175 515L175 510L170 510M180 510L180 515L175 515L175 520L165 520L165 524L170 524L170 529L180 529L180 524L190 524L190 510L180 510M199 510L199 515L204 515L204 510L199 510z"/>
<path style="fill:#43618b; stroke:none;" d="M993 514L993 518L988 518L988 523L993 523L993 518L1006 518L1006 523L1010 523L1010 518L1006 518L1006 514L993 514M156 515L156 520L161 520L161 515L156 515z"/>
<path style="fill:#f1902f; stroke:none;" d="M190 515L190 520L194 520L194 515L190 515z"/>
<path style="fill:#e5eaed; stroke:none;" d="M993 518L993 523L1001 523L1001 528L1006 528L1006 532L1015 532L1015 537L1019 537L1019 532L1015 532L1015 528L1010 528L1010 523L1006 523L1006 518L993 518z"/>
<path style="fill:#f1902f; stroke:none;" d="M107 520L107 524L112 524L112 520L107 520M961 523L961 532L966 532L966 523L961 523z"/>
<path style="fill:#43618b; stroke:none;" d="M997 523L997 528L1001 528L1001 523L997 523z"/>
<path style="fill:#f1902f; stroke:none;" d="M102 524L102 529L107 529L107 524L102 524M180 524L180 534L185 534L185 529L190 529L190 524L180 524z"/>
<path style="fill:#43618b; stroke:none;" d="M1001 528L1001 532L1006 532L1006 528L1001 528M1010 532L1010 537L1015 537L1015 532L1010 532M1019 532L1019 537L1024 537L1024 532L1019 532z"/>
<path style="fill:#e5eaed; stroke:none;" d="M98 534L98 539L102 539L102 534L98 534z"/>
<path style="fill:#5e3305; stroke:none;" d="M117 534L117 544L122 544L122 534L117 534z"/>
<path style="fill:#e5eaed; stroke:none;" d="M165 534L165 539L170 539L170 534L165 534M93 539L93 544L98 544L98 539L93 539M88 544L88 549L93 549L93 544L88 544z"/>
<path style="fill:#f1902f; stroke:none;" d="M151 554L151 558L146 558L146 563L151 563L151 573L165 573L165 563L161 563L161 568L156 568L156 563L151 563L151 558L161 558L161 554L151 554z"/>
<path style="fill:#e5eaed; stroke:none;" d="M161 554L161 558L156 558L156 568L161 568L161 563L165 563L165 554L161 554z"/>
<path style="fill:#f1902f; stroke:none;" d="M131 558L131 568L136 568L136 558L131 558z"/>
<path style="fill:#43618b; stroke:none;" d="M136 558L136 578L146 578L146 573L151 573L151 563L146 563L146 558L136 558z"/>
<path style="fill:#5e3305; stroke:none;" d="M151 558L151 563L156 563L156 558L151 558z"/>
<path style="fill:#f1902f; stroke:none;" d="M988 560L988 565L993 565L993 560L988 560M997 560L997 565L1006 565L1006 560L997 560z"/>
<path style="fill:#e5eaed; stroke:none;" d="M141 563L141 568L146 568L146 563L141 563z"/>
<path style="fill:#f1902f; stroke:none;" d="M170 563L170 578L165 578L165 583L170 583L170 587L175 587L175 583L170 583L170 578L175 578L175 563L170 563z"/>
<path style="fill:#e5eaed; stroke:none;" d="M73 568L73 573L78 573L78 568L73 568z"/>
<path style="fill:#5e3305; stroke:none;" d="M88 568L88 573L112 573L112 568L88 568z"/>
<path style="fill:#e5eaed; stroke:none;" d="M146 573L146 578L151 578L151 573L146 573M117 578L117 583L112 583L112 592L117 592L117 583L127 583L127 578L117 578M68 583L68 587L73 587L73 583L68 583z"/>
<path style="fill:#43618b; stroke:none;" d="M1126 583L1126 584L1155 584L1126 583M1124 584L1125 585L1124 584M1122 586L1123 587L1122 586z"/>
<path style="fill:#e5eaed; stroke:none;" d="M59 587L59 597L64 597L64 587L59 587M156 587L156 592L161 592L161 587L156 587z"/>
<path style="fill:#43618b; stroke:none;" d="M1042.67 590.333L1043.33 590.667L1042.67 590.333M1039 591L1040 592L1039 591M1046 591L1047 592L1046 591z"/>
<path style="fill:#e5eaed; stroke:none;" d="M73 592L73 597L78 597L78 602L83 602L83 607L78 607L78 602L73 602L73 597L64 597L64 602L68 602L68 607L73 607L73 612L88 612L88 607L98 607L98 597L88 597L88 592L73 592M98 592L98 597L107 597L107 592L98 592M146 592L146 597L151 597L151 592L146 592z"/>
<path style="fill:#43618b; stroke:none;" d="M1038 592L1039 593L1038 592M1048.67 592.333L1049.33 592.667L1048.67 592.333M1122 592L1098 593L1098 594L1122 592M1037 594L1038 595L1037 594z"/>
<path style="fill:#e5eaed; stroke:none;" d="M136 597L136 602L141 602L141 597L136 597z"/>
<path style="fill:#43618b; stroke:none;" d="M1037 599L1008 600L951 600L764 600L151 600L151 601L827 601L988 601L1026 601L1037 599M0 600L0 601L59 601L40 600L0 600z"/>
<path style="fill:#f1902f; stroke:none;" d="M59 602L59 607L64 607L64 612L54 612L54 617L59 617L59 621L64 621L64 617L73 617L73 612L68 612L68 607L64 607L64 602L59 602z"/>
<path style="fill:#5e3305; stroke:none;" d="M64 602L64 607L68 607L68 602L64 602z"/>
<path style="fill:#e5eaed; stroke:none;" d="M117 602L117 607L122 607L122 602L117 602z"/>
<path style="fill:#5e3305; stroke:none;" d="M68 607L68 612L73 612L73 607L68 607z"/>
<path style="fill:#e5eaed; stroke:none;" d="M122 612L122 617L127 617L127 612L122 612M44 617L44 621L39 621L39 626L35 626L35 631L39 631L39 626L44 626L44 631L49 631L49 636L44 636L44 641L39 641L39 646L44 646L44 641L49 641L49 636L54 636L54 626L44 626L44 621L49 621L49 617L44 617z"/>
<path style="fill:#43618b; stroke:none;" d="M49 617L49 621L44 621L44 626L59 626L59 621L54 621L54 617L49 617z"/>
<path style="fill:#5e3305; stroke:none;" d="M54 617L54 621L59 621L59 617L54 617z"/>
<path style="fill:#e5eaed; stroke:none;" d="M64 617L64 621L68 621L68 617L64 617M59 621L59 626L64 626L64 621L59 621M127 621L127 626L131 626L131 621L127 621z"/>
<path style="fill:#f1902f; stroke:none;" d="M131 621L131 626L136 626L136 621L131 621z"/>
<path style="fill:#43618b; stroke:none;" d="M39 626L39 641L44 641L44 636L49 636L49 631L44 631L44 626L39 626z"/>
<path style="fill:#e5eaed; stroke:none;" d="M25 631L25 636L20 636L20 641L15 641L15 646L10 646L10 655L15 655L15 646L20 646L20 641L25 641L25 636L30 636L30 631L25 631z"/>
<path style="fill:#43618b; stroke:none;" d="M25 636L25 641L20 641L20 646L15 646L15 655L25 655L25 660L30 660L30 655L39 655L39 641L30 641L30 636L25 636z"/>
<path style="fill:#e5eaed; stroke:none;" d="M39 650L39 655L44 655L44 650L39 650M20 655L20 660L25 660L25 655L20 655z"/>
<path style="fill:#5e3305; stroke:none;" d="M30 655L30 660L35 660L35 655L30 655z"/>
<path style="fill:#f1902f; stroke:none;" d="M35 655L35 660L44 660L44 655L35 655z"/>
<path style="fill:#e5eaed; stroke:none;" d="M49 655L49 660L54 660L54 655L49 655M30 660L30 665L35 665L35 660L30 660z"/>
<path style="fill:#43618b; stroke:none;" d="M35 660L35 665L54 665L54 660L35 660z"/>
</svg>
