<?xml version="1.0" standalone="yes"?>
<svg xmlns="http://www.w3.org/2000/svg" width="1361" height="1021">
<path style="fill:#ebf2fa; stroke:none;" d="M0 0L0 1021L1361 1021L1361 0L0 0z"/>
<path style="fill:#51a86d; stroke:none;" d="M11.0039 2.74231C4.242 5.362 4.00238 11.8237 4 18L4 57L4 227L4 817L4 964L4 1000C4 1005.39 3.05969 1011.6 7.22839 1015.77C12.5326 1021.08 23.1446 1019 30 1019L88 1019L322 1019L1048 1019L1260 1019L1322 1019C1330.19 1019 1342.3 1021.24 1350 1018.26C1356.76 1015.64 1357 1009.18 1357 1003L1357 964L1357 794L1357 204L1357 57L1357 21C1357 15.6141 1357.94 9.39703 1353.77 5.22839C1348.47 -0.0758057 1337.86 2 1331 2L1273 2L1039 2L313 2L101 2L39 2C30.8065 2 18.6978 -0.238464 11.0039 2.74231z"/>
<path style="fill:#ebf2fa; stroke:none;" d="M11 5L11 6L64 6L64 7C49.3179 9.97083 54.9956 39.5186 55 51C55.0023 56.9536 55.0379 63.6339 62.0039 65.5663C69.1649 67.5529 78.5939 66 86 66L135 66L295 66C303.957 66 323.333 69.7012 329.486 61.8912C332.748 57.7515 332 51.9307 332 47C332 36.1257 337.163 9.88336 323 7L323 6L1006 6L1006 7C1001.88 7.83844 998.994 9.78552 997.653 14.0038C994.44 24.1089 994.62 47.7674 997.434 57.9992C998.54 62.0239 1001.92 65.0269 1006 65.7716C1015.12 67.437 1025.73 66 1035 66L1095 66L1280 66L1315 66C1320 66 1325.85 66.8391 1329.58 62.7716C1332.54 59.5504 1332.94 55.1577 1333 51C1333.13 40.3157 1335.96 24.0225 1332.11 14.0008C1330.48 9.7674 1327.28 7.66132 1323 7L1323 6L1350 6L1315 5L1236 5L962 5L11 5z"/>
<path style="fill:#0101fb; stroke:none;" d="M1325 6L1325 7C1337.8 13.0217 1334 35.1279 1334 47C1334 51.1325 1335.3 58.0728 1332.97 61.6975C1331.25 64.374 1326.94 65.3762 1324 65.7909C1292.65 70.2117 1257.69 66 1226 66L1025 66C691.952 66 357.847 64 25 64L25 23L54 23C54.0206 15.8284 55.2745 10.5729 62 7C51.4963 2.59241 33.42 6 22 6C17.9966 6 11.627 4.82025 8.74228 8.31787C6.08372 11.5413 7 17.1281 7 21L7 53L7 178L7 786L7 959L7 1000C7 1005.01 5.92692 1011.9 11.1088 1014.82C16.8285 1018.04 27.5985 1016 34 1016L90 1016L296 1016L1048 1016L1279 1016L1334 1016C1339.73 1016 1349.45 1017.89 1352.82 1011.89C1355.93 1006.37 1354 996.166 1354 990C1354 971.479 1354.27 953.18 1352.13 934.961C1350.42 920.377 1352 904.688 1352 890L1352 799C1352 692.558 1354.21 586.144 1354 480C1353.84 397.446 1352 313.941 1352 231L1352 134C1352 118.334 1350.3 101.592 1352.13 86.0394C1354.27 67.8203 1354 49.5213 1354 31C1354 24.9619 1355.99 14.4946 1352.82 9.14813C1349.12 2.90479 1331.38 6 1325 6z"/>
<path style="fill:#51a86d; stroke:none;" d="M62.6667 6.33331L63.3333 6.66669L62.6667 6.33331M323.667 6.33331L324.333 6.66669L323.667 6.33331z"/>
<path style="fill:#0101fb; stroke:none;" d="M325 6L325 7C331.089 11.3956 331.995 15.8384 332 23L997 23C997.001 15.9624 997.251 10.6717 1004 7L985 6L945 6L807 6L325 6z"/>
<path style="fill:#51a86d; stroke:none;" d="M1004.67 6.33331L1005.33 6.66669L1004.67 6.33331M1323.67 6.33331L1324.33 6.66669L1323.67 6.33331M60 7L61 8L60 7M326 7L327 8L326 7M1002 7L1003 8L1002 7M1327 7L1328 8L1327 7M58 8L59 9L58 8M1000 8L1001 9L1000 8M1328 8L1329 9L1328 8M57 9L58 10L57 9M999 9L1000 10L999 9M1329 9L1330 10L1329 9M56 10L57 11L56 10M1330 10L1331 11L1330 10M330 11L331 12L330 11M998 11L999 12L998 11M1331 11L1332 12L1331 11M55 12L56 13L55 12M997.333 12.6667L997.667 13.3333L997.333 12.6667M331 13L332 14L331 13M1332.33 13.6667L1332.67 14.3333L1332.33 13.6667M54 14L54 59L55 59C55 46.258 58.91 25.7012 54 14z"/>
<path style="fill:#fcb222; stroke:none;" d="M202.001 17.5332C190.023 20.4598 188.536 48.3516 199.019 53.821C205.43 57.1659 216.912 55 224 55L276 55C282.799 55 292.594 56.7779 298.985 54.2577C310.257 49.8124 308.819 22.0865 297.996 17.8935C290.167 14.8605 278.315 17 270 17C249.023 17 222.357 12.5594 202.001 17.5332M1205 17.5332C1192.98 20.4695 1191.53 48.3647 1202.02 53.821C1208.44 57.1608 1219.9 55 1227 55L1279 55C1285.8 55 1295.59 56.778 1301.98 54.2577C1312.22 50.2225 1310.9 21.7297 1301 17.8935C1293.17 14.8605 1281.31 17 1273 17C1252.02 17 1225.36 12.5594 1205 17.5332z"/>
<path style="fill:#130102; stroke:none;" d="M25 23L25 64L57 64C52.3741 50.9683 54 36.7665 54 23L25 23M332 23C332 35.8442 334.868 52.3263 329 64L1000 64C994.132 52.3264 997 35.8441 997 23L332 23M1333 23C1333 36.4474 1335.13 51.4055 1330 64C1334.7 62.4396 1334 58.3673 1334 54C1334 44.9432 1336.51 31.3545 1333 23z"/>
<path style="fill:#51a86d; stroke:none;" d="M83 24L83 49L100 49L100 45L87 45L87 24L83 24M159 24L159 49L164 49L164 24L159 24z"/>
<path style="fill:#ebf2fa; stroke:none;" d="M244 33L250 31L250 49L254 49L254 24C249.277 25.3126 245.453 28.2328 244 33z"/>
<path style="fill:#51a86d; stroke:none;" d="M1022 49L1028 49L1029 43C1034.75 43.0045 1038.88 42.9678 1041 49L1047 49C1045.2 43.6678 1040.88 22.3467 1033.21 24.3372C1027.26 25.8821 1024.04 43.7068 1022 49M1049 24L1049 49L1054 49L1054 24L1049 24M1058 24L1058 49L1063 49L1063 24L1058 24M1068 24L1068 49L1073 49L1073 40C1079.77 39.9955 1093.88 33.8904 1083.7 25.7423C1079.86 22.6679 1072.61 24 1068 24M1111 24L1111 28L1116 28L1116 24L1111 24M1145 24C1138.25 29.8203 1137.12 51.6647 1150 48L1150 46L1146 45L1146 34L1149 34L1149 30L1146 30L1145 24z"/>
<path style="fill:#ebf2fa; stroke:none;" d="M1238 35C1239.83 25.9576 1244.38 28.9759 1251 30C1242.75 14.6155 1231.21 32.8395 1235.74 43.9561C1238.32 50.2746 1247.7 50.3375 1250.26 43.9561C1253.78 35.1628 1244.5 31.8754 1238 35M1258.11 25.0286C1249.72 29.6837 1253.08 54.3479 1264.94 47.9714C1274.24 42.9727 1269.88 18.4943 1258.11 25.0286z"/>
<path style="fill:#fcb222; stroke:none;" d="M1259.51 28.0471C1254.83 31.1644 1256.5 49.5045 1263.57 44.9529C1268.3 41.9084 1266.49 23.3978 1259.51 28.0471z"/>
<path style="fill:#ebf2fa; stroke:none;" d="M1073 28L1073 36C1082.45 35.7707 1082.45 28.2293 1073 28M1034 29L1031 39L1038 39L1034 29z"/>
<path style="fill:#51a86d; stroke:none;" d="M118 45L106 41L118 41C117.582 32.006 106.195 24.3972 102.303 36.0154C98.7578 46.5999 110.945 52.9943 118 45M120 30L126 49C134.157 48.35 135.491 36.5052 138 30C131.266 30.5231 130.343 36.1943 129 42L128 42L125 30L120 30M155 45L144 41L156 41C154.731 31.8183 142.193 24.3271 139.398 37.0038C137.122 47.3273 148.237 52.664 155 45M1095.02 30.743C1083.96 35.0758 1090.72 52.7651 1101.96 48.257C1112.65 43.9659 1106.2 26.364 1095.02 30.743M1111 30L1111 49L1116 49L1116 30L1111 30M1120 30L1120 49L1125 49C1125 46.4023 1123.73 34.6369 1128.74 35.6312C1132.44 36.3649 1131 46.3029 1131 49L1136 49C1136 43.1414 1137.15 23.5952 1126 32L1120 30M1162 42L1162 44L1150 44C1157.37 55.6406 1173.72 42.2784 1161.96 37.7646C1159.73 36.91 1157.33 36.4815 1155 36L1155 34L1166 34C1159.21 25.8497 1145.82 34.6279 1154.15 39.6968C1156.43 41.0873 1159.42 41.4667 1162 42z"/>
<path style="fill:#ebf2fa; stroke:none;" d="M106 38L113 38C111.447 33.3286 108.262 34.3224 106 38M144 38L151 38C148.84 34.1318 146.16 34.1317 144 38M1096.43 35.0718C1091.91 37.8506 1095.31 47.1837 1100.57 43.8017C1105.03 40.9396 1101.52 31.9371 1096.43 35.0718z"/>
<path style="fill:#fcb222; stroke:none;" d="M1240.53 37.0324C1236.34 40.0512 1240.93 48.0075 1245.48 44.9529C1250.08 41.8721 1245.44 33.4858 1240.53 37.0324z"/>
<path style="fill:#51a86d; stroke:none;" d="M1332.33 57.6667L1332.67 58.3333L1332.33 57.6667M331.333 58.6667L331.667 59.3333L331.333 58.6667M997 59L998 60L997 59M55 60L56 61L55 60M1331 60L1332 61L1331 60M330 61L331 62L330 61M998 61L999 62L998 61M329 62L330 63L329 62M999 62L1000 63L999 62M1330 62L1331 63L1330 62M57 63L58 64L57 63M328 63L329 64L328 63M1000 63L1001 64L1000 63M1329 63L1330 64L1329 63M327 64L328 65L327 64M1001 64L1002 65L1001 64M1328 64L1329 65L1328 64M60 65L61 66L60 65M325 65L326 66L325 65M1003 65L1004 66L1003 65M1326 65L1327 66L1326 65z"/>
<path style="fill:#130102; stroke:none;" d="M25 82L25 472L68 472L68 82L25 82M86 82L86 472L277 472L277 550L86 550L86 939L1272 939L1272 550L1110 550L1060 550C1052.97 550 1043.85 551.547 1037.06 549.682C1030.95 548.005 1033 537.799 1033 533L1033 489C1033 484.938 1031.46 476.744 1034.6 473.603C1037.87 470.337 1046.76 472 1051 472L1095 472L1272 472L1272 82L86 82M1290 82L1290 472L1334 472L1334 82L1290 82M1352 82L1352 472L1354 472L1354 82L1352 82z"/>
<path style="fill:#51a86d; stroke:none;" d="M428 208C435.538 208 447.249 210.205 453.961 206.347C467.518 198.556 471.85 179.964 486 172.573C493.81 168.492 504.173 175.001 506 183C517.577 180.277 521.898 188.769 520 199C530.933 208.345 539.124 207 553 207C553 184.736 557.111 158.359 543.779 139C518.661 102.526 457.032 104.172 434.879 143C424.078 161.93 428 187.077 428 208z"/>
<path style="fill:#ebf2fa; stroke:none;" d="M452 138C454.921 143.314 472.848 146.37 479 147C477.418 137.279 459.579 134.374 452 138M503 148C509.337 146.87 527.995 142.251 529 136C520.186 136.001 504.718 137.104 503 148z"/>
<path style="fill:#fcb222; stroke:none;" d="M456 141L457 142L456 141M522 141L522 142L526 142L522 141z"/>
<path style="fill:#130102; stroke:none;" d="M457 142L458 143L457 142z"/>
<path style="fill:#fcb222; stroke:none;" d="M462 142L463 143L462 142M517 142L518 143L517 142z"/>
<path style="fill:#51a86d; stroke:none;" d="M518.667 142.333L519.333 142.667L518.667 142.333z"/>
<path style="fill:#130102; stroke:none;" d="M508 147L508 148L524 143C518.867 141.164 512.546 144.579 508 147M459 143L459 144L474 147L459 143z"/>
<path style="fill:#51a86d; stroke:none;" d="M464.667 143.333L465.333 143.667L464.667 143.333z"/>
<path style="fill:#fcb222; stroke:none;" d="M466 143L467 144L466 143M514 143L515 144L514 143z"/>
<path style="fill:#51a86d; stroke:none;" d="M515 143L516 144L515 143M467 144L467 145L470 145L467 144z"/>
<path style="fill:#fcb222; stroke:none;" d="M470 144L471 145L470 144z"/>
<path style="fill:#51a86d; stroke:none;" d="M512.667 144.333L513.333 144.667L512.667 144.333M472 145L473 146L472 145M510 145L511 146L510 145z"/>
<path style="fill:#ebf2fa; stroke:none;" d="M518 145L519 146L518 145z"/>
<path style="fill:#51a86d; stroke:none;" d="M508 146L509 147L508 146z"/>
<path style="fill:#ebf2fa; stroke:none;" d="M516 146L517 147L516 146z"/>
<path style="fill:#fcb222; stroke:none;" d="M506 147L507 148L506 147M170.015 182.742C157.436 187.68 165.381 207.139 177.995 202.258C190.957 197.242 182.686 177.769 170.015 182.742z"/>
<path style="fill:#51a86d; stroke:none;" d="M178 182L179 183L178 182z"/>
<path style="fill:#fcb222; stroke:none;" d="M282.04 182.858C269.042 188.376 278.302 207.546 290.907 201.991C303.181 196.581 294.393 177.614 282.04 182.858z"/>
<path style="fill:#51a86d; stroke:none;" d="M290 182L291 183L290 182M394 182L395 183L394 182z"/>
<path style="fill:#fcb222; stroke:none;" d="M395.004 182.742C381.826 187.821 390.359 207.493 402.96 202.142C414.822 197.104 407.391 177.968 395.004 182.742M507.005 182.742C494.908 187.431 502.275 207.248 514.985 202.258C526.966 197.553 519.655 177.839 507.005 182.742M619.015 182.742C607.031 187.448 614.341 207.139 626.996 202.258C640.182 197.172 631.714 177.756 619.015 182.742z"/>
<path style="fill:#51a86d; stroke:none;" d="M627 182L628 183L627 182M731 182L732 183L731 182z"/>
<path style="fill:#fcb222; stroke:none;" d="M732.015 182.654C719.254 186.709 726.008 206.47 738.985 202.346C751.746 198.291 744.992 178.53 732.015 182.654z"/>
<path style="fill:#51a86d; stroke:none;" d="M739 182L740 183L739 182M843 182L844 183L843 182z"/>
<path style="fill:#fcb222; stroke:none;" d="M844.005 182.742C831.045 187.753 839.355 207.399 851.985 202.142C863.926 197.172 856.481 177.918 844.005 182.742z"/>
<path style="fill:#51a86d; stroke:none;" d="M955 182L956 183L955 182z"/>
<path style="fill:#fcb222; stroke:none;" d="M956.015 182.742C943.183 187.773 951.387 207.202 963.985 202.258C976.553 197.324 968.608 177.806 956.015 182.742M1068.02 182.742C1056.03 187.447 1063.34 207.154 1076 202.258C1088.96 197.242 1080.69 177.767 1068.02 182.742z"/>
<path style="fill:#51a86d; stroke:none;" d="M1076 182L1077 183L1076 182z"/>
<path style="fill:#fcb222; stroke:none;" d="M1180.04 182.858C1167.78 188.106 1176.28 207.433 1188.96 201.991C1201.26 196.711 1192.48 177.538 1180.04 182.858z"/>
<path style="fill:#51a86d; stroke:none;" d="M1188 182L1189 183L1188 182M280 183L281 184L280 183M292 183L293 184L292 183M392 183L393 184L392 183M404 183L405 184L404 183M729 183L730 184L729 183M741 183L742 184L741 183M841 183L842 184L841 183M853 183L854 184L853 183M1178 183L1179 184L1178 183M1190 183L1191 184L1190 183M181 184L182 185L181 184M391 184L392 185L391 184M503 184L504 185L503 184M630 184L631 185L630 184M840 184L841 185L840 184M1079 184L1080 185L1079 184M182 185L183 186L182 185M294 185L295 186L294 185M390 185L391 186L390 185M502 185L503 186L502 185M631 185L632 186L631 185M839 185L840 186L839 185M951 185L952 186L951 185M1080 185L1081 186L1080 185M277 186L278 187L277 186M295 186L296 187L295 186M407 186L408 187L407 186M726 186L727 187L726 186M744 186L745 187L744 186M1175 186L1176 187L1175 186M1193 186L1194 187L1193 186M164 187L165 188L164 187M613 187L614 188L613 187M857 187L858 188L857 187M950 187L951 188L950 187M969 187L970 188L969 187M296 188L297 189L296 188M388 188L389 189L388 188M725 188L726 189L725 188M745 188L746 189L745 188M1174 188L1175 189L1174 188M1194 188L1195 189L1194 188M184 189L185 190L184 189M500 189L500 196L501 196L500 189M837 189L838 190L837 189M949 189L950 190L949 189M1082 189L1083 190L1082 189M163 190L164 191L163 190M275 190L276 191L275 190M612 190L612 195L613 195L612 190M858 190L858 195L859 195L858 190M970 190L971 191L970 190M746 191L746 194L747 194L746 191M634 192L635 193L634 192M724 192L725 193L724 192M163 194L164 195L163 194M275 194L276 195L275 194M970 194L971 195L970 194M184 195L185 196L184 195M837 195L838 196L837 195M949 195L950 196L949 195M1082 195L1083 196L1082 195M296 196L297 197L296 196M388 196L389 197L388 196M725 196L726 197L725 196M745 196L746 197L745 196M1174 196L1175 197L1174 196M1194 196L1195 197L1194 196M164 197L165 198L164 197M613 197L614 198L613 197M857 197L858 198L857 197M950 197L951 198L950 197M969 197L970 198L969 197M277 198L278 199L277 198M295 198L296 199L295 198M407 198L408 199L407 198M726 198L727 199L726 198M744 198L745 199L744 198M1175 198L1176 199L1175 198M1193 198L1194 199L1193 198M182 199L183 200L182 199M294 199L295 200L294 199M390 199L391 200L390 199M502 199L503 200L502 199M631 199L632 200L631 199M839 199L840 200L839 199M951 199L952 200L951 199M1080 199L1081 200L1080 199M181 200L182 201L181 200M391 200L392 201L391 200M503 200L504 201L503 200M630 200L631 201L630 200M840 200L841 201L840 200M1079 200L1080 201L1079 200M280 201L281 202L280 201M292 201L293 202L292 201M392 201L393 202L392 201M404 201L405 202L404 201M729 201L730 202L729 201M741 201L742 202L741 201M841 201L842 202L841 201M853 201L854 202L853 201M1178 201L1179 202L1178 201M1190 201L1191 202L1190 201M178 202L179 203L178 202M290 202L291 203L290 202M394 202L395 203L394 202M506 202L507 203L506 202M627 202L628 203L627 202M731 202L732 203L731 202M739 202L740 203L739 202M843 202L844 203L843 202M955 202L956 203L955 202M1076 202L1077 203L1076 202M1188 202L1189 203L1188 202z"/>
<path style="fill:#0101fb; stroke:none;" d="M279 255L279 332L517 332L517 569L597 569L597 255L279 255M747 255L747 332L1116 332L1116 255L747 255z"/>
<path style="fill:#130102; stroke:none;" d="M297 273L297 314L517 314L517 273L297 273M765 314L1098 314L1098 273L853 273L790 273L766.603 274.028L765 285L765 314M535 275L535 314L579 314L579 275L535 275z"/>
<path style="fill:#51a86d; stroke:none;" d="M170 294L171 295L170 294z"/>
<path style="fill:#fcb222; stroke:none;" d="M171.004 294.657C157.849 298.675 164.427 319.109 176.985 315.13C190.087 310.979 184.297 290.597 171.004 294.657z"/>
<path style="fill:#51a86d; stroke:none;" d="M177 294L178 295L177 294M619 294L620 295L619 294z"/>
<path style="fill:#fcb222; stroke:none;" d="M620.004 294.657C607.536 298.465 613.507 319.083 625.985 315.13C639.229 310.936 633.265 290.606 620.004 294.657z"/>
<path style="fill:#51a86d; stroke:none;" d="M626 294L627 295L626 294z"/>
<path style="fill:#fcb222; stroke:none;" d="M1181 294.746C1168.31 299.505 1175.35 320.067 1187.99 314.987C1200.47 309.968 1193.68 289.992 1181 294.746z"/>
<path style="fill:#51a86d; stroke:none;" d="M1187 294L1188 295L1187 294M168 295L169 296L168 295M617 295L618 296L617 295M1177 296L1178 297L1177 296M1191 296L1192 297L1191 296M631 297L632 298L631 297M1176 297L1177 298L1176 297M1192 297L1193 298L1192 297M183 299L184 300L183 299M613 299L614 300L613 299M632 299L633 300L632 299M1174 300L1175 301L1174 300M1194 300L1195 301L1194 300M184 301L185 302L184 301M633 301L634 302L633 301M163 302L164 303L163 302M612 303L612 307L613 307L612 303M634.333 304.667L634.667 305.333L634.333 304.667M184 307L185 308L184 307M633 308L634 309L633 308M164 309L165 310L164 309M613 309L614 310L613 309M1193 310L1194 311L1193 310M182 311L183 312L182 311M631 311L632 312L631 311M166 312L167 313L166 312M615 312L616 313L615 312M180 313L181 314L180 313M629 313L630 314L629 313M169 314L170 315L169 314M618 314L619 315L618 314M171 315L172 316L171 315M176 315L177 316L176 315M620 315L621 316L620 315M625 315L626 316L625 315z"/>
<path style="fill:#130102; stroke:none;" d="M535 332L535 551L579 551L579 332L535 332z"/>
<path style="fill:#51a86d; stroke:none;" d="M174 377L175 378L174 377z"/>
<path style="fill:#fcb222; stroke:none;" d="M175 377.468C139.688 384.141 151.838 437.848 187 431.671C221.46 425.618 209.387 370.969 175 377.468z"/>
<path style="fill:#51a86d; stroke:none;" d="M187 377L188 378L187 377M190 378L191 379L190 378M192 379L193 380L192 379M198 383L199 384L198 383M199 384L200 385L199 384M200 385L201 386L200 385M201 386L202 387L201 386M158 388L159 389L158 388z"/>
<path style="fill:#fcb222; stroke:none;" d="M721 388L721 389L727 389L721 388M786 388L786 389L796 390L793 393L793 394L797 389L786 388z"/>
<path style="fill:#51a86d; stroke:none;" d="M203 389L204 390L203 389z"/>
<path style="fill:#fcb222; stroke:none;" d="M719 389L721 394L719 389z"/>
<path style="fill:#ebf2fa; stroke:none;" d="M719 390C722.655 396.65 737.135 396.792 744 400C745.487 389.72 726.006 387.929 719 390z"/>
<path style="fill:#fcb222; stroke:none;" d="M730.667 389.333L731.333 389.667L730.667 389.333M783 389L784 390L783 389z"/>
<path style="fill:#ebf2fa; stroke:none;" d="M770 400C776.171 398.589 792.72 395.047 796 390C787.366 387.448 772.8 390.26 770 400z"/>
<path style="fill:#fcb222; stroke:none;" d="M733 390L733 391L736 391L733 390M779 390L779 391L782 391L779 390M737 391L738 392L737 391M777.667 391.333L778.333 391.667L777.667 391.333M739.667 392.333L740.333 392.667L739.667 392.333M775.667 392.333L776.333 392.667L775.667 392.333z"/>
<path style="fill:#51a86d; stroke:none;" d="M155 393L156 394L155 393z"/>
<path style="fill:#fcb222; stroke:none;" d="M741.667 393.333L742.333 393.667L741.667 393.333M773.667 393.333L774.333 393.667L773.667 393.333z"/>
<path style="fill:#51a86d; stroke:none;" d="M725 394L726 395L725 394z"/>
<path style="fill:#fcb222; stroke:none;" d="M743 394L744 395L743 394M772 394L773 395L772 394z"/>
<path style="fill:#51a86d; stroke:none;" d="M785.667 394.333L786.333 394.667L785.667 394.333M729 395L729 396L732 396L729 395z"/>
<path style="fill:#fcb222; stroke:none;" d="M744 395L744 400C746.374 398.22 746.374 396.78 744 395M771 395L772 396L771 395z"/>
<path style="fill:#51a86d; stroke:none;" d="M781.667 395.333L782.333 395.667L781.667 395.333M154 396L155 397L154 396M734 396L735 397L734 396z"/>
<path style="fill:#fcb222; stroke:none;" d="M770 396L771 397L770 396z"/>
<path style="fill:#51a86d; stroke:none;" d="M778 396L779 397L778 396M788.667 396.333L789.333 396.667L788.667 396.333M737.667 397.333L738.333 397.667L737.667 397.333z"/>
<path style="fill:#fcb222; stroke:none;" d="M769 397L769 400L770 400L769 397z"/>
<path style="fill:#51a86d; stroke:none;" d="M776 397L777 398L776 397M785 397L786 398L785 397z"/>
<path style="fill:#fcb222; stroke:none;" d="M786.667 397.333L787.333 397.667L786.667 397.333z"/>
<path style="fill:#51a86d; stroke:none;" d="M207 398L208 399L207 398M740.667 398.333L741.333 398.667L740.667 398.333M774 398L775 399L774 398M781 398L782 399L781 398z"/>
<path style="fill:#fcb222; stroke:none;" d="M781 399L781 400L786 399L781 399M734 399L735 400L734 399z"/>
<path style="fill:#51a86d; stroke:none;" d="M735 399L736 400L735 399M742 399L743 400L742 399M773 399L774 400L773 399M777 399L778 400L777 399z"/>
<path style="fill:#fcb222; stroke:none;" d="M770 400L770 401L780 401L770 400z"/>
<path style="fill:#ebf2fa; stroke:none;" d="M779.667 399.333L780.333 399.667L779.667 399.333z"/>
<path style="fill:#51a86d; stroke:none;" d="M153 400L154 401L153 400z"/>
<path style="fill:#fcb222; stroke:none;" d="M739 400L739 401L743 401L739 400M284.001 406.668C270.495 410.521 275.542 431.075 288.999 427.562C302.064 424.152 296.827 403.009 284.001 406.668M396.004 406.667C383.126 410.409 388.215 430.979 400.999 427.332C414.026 423.616 409.056 402.875 396.004 406.667z"/>
<path style="fill:#51a86d; stroke:none;" d="M401 406L402 407L401 406M620 406L621 407L620 406z"/>
<path style="fill:#fcb222; stroke:none;" d="M621.015 406.549C608.446 409.301 612.122 429.917 624.999 427.427C638.708 424.776 634.523 403.59 621.015 406.549M845.004 406.667C832.286 410.367 837.104 430.735 849.999 427.307C863.121 423.819 858.027 402.878 845.004 406.667z"/>
<path style="fill:#51a86d; stroke:none;" d="M850 406L851 407L850 406M957 406L958 407L957 406z"/>
<path style="fill:#fcb222; stroke:none;" d="M958.001 406.573C944.266 409.252 948.63 430.036 961.996 427.427C975.143 424.861 971.468 403.947 958.001 406.573z"/>
<path style="fill:#51a86d; stroke:none;" d="M962 406L963 407L962 406M1069 406L1070 407L1069 406z"/>
<path style="fill:#fcb222; stroke:none;" d="M1070 406.588C1056.77 409.996 1061.88 430.997 1075 427.181C1087.75 423.472 1082.98 403.244 1070 406.588z"/>
<path style="fill:#51a86d; stroke:none;" d="M1181 406L1182 407L1181 406z"/>
<path style="fill:#fcb222; stroke:none;" d="M1182 406.587C1168.86 410.026 1173.99 431.042 1187 427.332C1200.01 423.62 1195.15 403.147 1182 406.587z"/>
<path style="fill:#51a86d; stroke:none;" d="M1187 406L1188 407L1187 406M393 407L394 408L393 407M628 407L629 408L628 407M842 407L843 408L842 407M954 407L955 408L954 407M1077 407L1078 408L1077 407M153 408L154 409L153 408M405 408L406 409L405 408M854 408L855 409L854 408M1065 408L1066 409L1065 408M406 409L407 410L406 409M615 409L616 410L615 409M855 409L856 410L855 409M1064 409L1065 410L1064 409M1176 409L1177 410L1176 409M1192 409L1193 410L1192 409M207 410L208 411L207 410M614 410L615 411L614 410M856 410L857 411L856 410M1063 410L1064 411L1063 410M295 411L296 412L295 411M389 411L390 412L389 411M632 411L633 412L632 411M838 411L839 412L838 411M969 411L970 412L969 411M154 412L155 413L154 412M408 412L409 413L408 412M613 412L614 413L613 412M857 412L858 413L857 412M1174 412L1175 413L1174 412M1194 412L1195 413L1194 412M296 413L297 414L296 413M633 413L634 414L633 413M837 413L838 414L837 413M949 413L950 414L949 413M1082 413L1083 414L1082 413M206 414L207 415L206 414M970.333 414.667L970.667 415.333L970.333 414.667M275 415L276 416L275 415M612 415L612 419L613 419L612 415M858 415L858 419L859 419L858 415M205 416L206 417L205 416M634.333 416.667L634.667 417.333L634.333 416.667M156 417L157 418L156 417M204 418L205 419L204 418M970.333 418.667L970.667 419.333L970.333 418.667M157 419L158 420L157 419M275 419L276 420L275 419M388 420L389 421L388 420M633 420L634 421L633 420M837 420L838 421L837 420M1082 420L1083 421L1082 420M202 421L203 422L202 421M276 421L277 422L276 421M408 421L409 422L408 421M613 421L614 422L613 421M857 421L858 422L857 421M1062 421L1063 422L1062 421M1174 421L1175 422L1174 421M389 422L390 423L389 422M632 422L633 423L632 422M838 422L839 423L838 422M969 422L970 423L969 422M1081 422L1082 423L1081 422M160 423L161 424L160 423M277 423L278 424L277 423M614 423L615 424L614 423M856 423L857 424L856 423M951 423L952 424L951 423M968 423L969 424L968 423M1063 423L1064 424L1063 423M161 424L162 425L161 424M294 424L295 425L294 424M406 424L407 425L406 424M615 424L616 425L615 424M855 424L856 425L855 424M1064 424L1065 425L1064 424M162 425L163 426L162 425M279 425L280 426L279 425M293 425L294 426L293 425M405 425L406 426L405 425M616 425L617 426L616 425M854 425L855 426L854 425M953 425L954 426L953 425M1065 425L1066 426L1065 425M280 426L281 427L280 426M393 426L394 427L393 426M403 426L404 427L403 426M842 426L843 427L842 426M852 426L853 427L852 426M1179 426L1180 427L1179 426M1189 426L1190 427L1189 426M196 427L197 428L196 427M401 427L402 428L401 427M620 427L621 428L620 427M625 427L626 428L625 427M845 427L846 428L845 427M850 427L851 428L850 427M957 427L958 428L957 427M962 427L963 428L962 427M1069 427L1070 428L1069 427M1074 427L1075 428L1074 427M166 428L167 429L166 428M172 431L173 432L172 431M188 431L189 432L188 431z"/>
<path style="fill:#0101fb; stroke:none;" d="M764 478L764 709L406 709L314 709C306.652 709 286.404 705.434 280.603 710.028C276.849 713.001 279 725.619 279 730L279 787L1074 787L1074 731L1072.97 710.603L1058 709L1016 709L844 709L844 478L764 478z"/>
<path style="fill:#130102; stroke:none;" d="M25 491L25 531L68 531L68 491L25 491M86 491L86 531L259 531L259 491L86 491M1052 491L1052 531L1272 531L1272 491L1052 491M1290 491L1290 531L1334 531L1334 491L1290 491M782 496L782 709L826 709L826 496L782 496z"/>
<path style="fill:#fcb222; stroke:none;" d="M396.004 518.668C383.222 522.345 387.789 542.87 400.999 539.413C414.142 535.974 408.998 514.93 396.004 518.668z"/>
<path style="fill:#51a86d; stroke:none;" d="M401 518L402 519L401 518M620 518L621 519L620 518z"/>
<path style="fill:#fcb222; stroke:none;" d="M621.001 518.693C607.914 522.156 612.513 543.26 625.996 539.333C638.736 535.621 633.805 515.304 621.001 518.693z"/>
<path style="fill:#51a86d; stroke:none;" d="M625 518L626 519L625 518M957 518L958 519L957 518z"/>
<path style="fill:#fcb222; stroke:none;" d="M958 518.613C944.504 521.805 948.481 542.308 961.999 539.59C975.456 536.885 970.93 515.554 958 518.613z"/>
<path style="fill:#51a86d; stroke:none;" d="M962 518L963 519L962 518M403 519L404 520L403 519M618 519L619 520L618 519M616 520L617 521L616 520M629 520L630 521L629 520M953 520L954 521L953 520M966 520L967 521L966 520M406 521L407 522L406 521M615 521L616 522L615 521M952 521L953 522L952 521M967 521L968 522L967 521M614 522L615 523L614 522M951 522L952 523L951 522M968 522L969 523L968 522M389 523L390 524L389 523M408 524L409 525L408 524M613 524L614 525L613 524M388 525L389 526L388 525M633 525L634 526L633 525M970.333 526.667L970.667 527.333L970.333 526.667M612 527L612 531L613 531L612 527M634.333 528.667L634.667 529.333L634.333 528.667M970 531L971 532L970 531M633 532L634 533L633 532M949 532L950 533L949 532M408 533L409 534L408 533M632 534L633 535L632 534M969 534L970 535L969 534M407 535L408 536L407 535M614 535L615 536L614 535M390 536L391 537L390 536M406 536L407 537L406 536M405 537L406 538L405 537M617 538L618 539L617 538M628 538L629 539L628 538M954 538L955 539L954 538M965 538L966 539L965 538M395 539L396 540L395 539M401 539L402 540L401 539M620 539L621 540L620 539M626 539L627 540L626 539z"/>
<path style="fill:#130102; stroke:none;" d="M25 550L25 939L68 939L68 550L25 550M1290 550L1290 939L1334 939L1334 550L1290 550M1352 550L1352 939L1354 939L1354 550L1352 550z"/>
<path style="fill:#51a86d; stroke:none;" d="M169 631L170 632L169 631z"/>
<path style="fill:#fcb222; stroke:none;" d="M170.015 631.742C157.263 636.741 165.492 656.055 177.995 651.257C190.971 646.278 182.688 626.775 170.015 631.742z"/>
<path style="fill:#51a86d; stroke:none;" d="M178 631L179 632L178 631z"/>
<path style="fill:#fcb222; stroke:none;" d="M282.04 631.742C269.492 636.784 277.648 655.976 289.996 651.257C303.141 646.234 295.111 626.491 282.04 631.742M396.004 631.668C383.202 635.351 387.862 655.807 400.999 652.412C414.156 649.012 408.996 627.931 396.004 631.668z"/>
<path style="fill:#51a86d; stroke:none;" d="M401 631L402 632L401 631M506 631L507 632L506 631z"/>
<path style="fill:#fcb222; stroke:none;" d="M507.005 631.742C494.916 636.428 502.192 656.129 514.985 651.106C526.977 646.398 519.589 626.864 507.005 631.742z"/>
<path style="fill:#51a86d; stroke:none;" d="M515 631L516 632L515 631M618 631L619 632L618 631z"/>
<path style="fill:#fcb222; stroke:none;" d="M619.015 631.742C606.986 636.466 614.537 656.076 626.985 651.257C640.104 646.179 631.738 626.747 619.015 631.742z"/>
<path style="fill:#51a86d; stroke:none;" d="M627 631L628 632L627 631M955 631L956 632L955 631z"/>
<path style="fill:#fcb222; stroke:none;" d="M956.015 631.742C943.19 636.77 951.306 656.083 963.985 651.106C976.612 646.15 968.637 626.794 956.015 631.742z"/>
<path style="fill:#51a86d; stroke:none;" d="M964 631L965 632L964 631z"/>
<path style="fill:#fcb222; stroke:none;" d="M1068.02 631.742C1055.98 636.469 1063.53 656.036 1076 651.257C1088.95 646.29 1080.91 626.679 1068.02 631.742z"/>
<path style="fill:#51a86d; stroke:none;" d="M1076 631L1077 632L1076 631z"/>
<path style="fill:#fcb222; stroke:none;" d="M1180.04 631.858C1167.78 637.123 1176.43 656.626 1188.96 650.911C1201.22 645.316 1192.58 626.478 1180.04 631.858z"/>
<path style="fill:#51a86d; stroke:none;" d="M180 632L181 633L180 632M292 632L293 633L292 632M393 632L394 633L393 632M403 632L404 633L403 632M629 632L630 633L629 632M1078 632L1079 633L1078 632M1178 632L1179 633L1178 632M1190 632L1191 633L1190 632M181 633L182 634L181 633M503 633L504 634L503 633M518 633L519 634L518 633M630 633L631 634L630 633M952 633L953 634L952 633M967 633L968 634L967 633M182 634L183 635L182 634M406 634L407 635L406 634M502 634L503 635L502 634M631 634L632 635L631 634M951 634L952 635L951 634M968 634L969 635L968 634M1080 634L1081 635L1080 634M277 635L278 636L277 635M295 635L296 636L295 635M1175 635L1176 636L1175 635M1193 635L1194 636L1193 635M164 636L165 637L164 636M389 636L390 637L389 636M520 636L521 637L520 636M613 636L614 637L613 636M950 636L951 637L950 636M1062 636L1063 637L1062 636M296 637L297 638L296 637M408 637L409 638L408 637M633 637L634 638L633 637M1082.33 637.667L1082.67 638.333L1082.33 637.667M1174 637L1175 638L1174 637M184 638L185 639L184 638M388 638L389 639L388 638M500 638L500 645L501 645L500 638M949 638L950 639L949 638M970.333 638.667L970.667 639.333L970.333 638.667M275 639L276 640L275 639M612 639L612 644L613 644L612 639M634 641L635 642L634 641M163 643L164 644L163 643M275 643L276 644L275 643M970 643L971 644L970 643M184 644L185 645L184 644M949 644L950 645L949 644M1082 644L1083 645L1082 644M296 645L297 646L296 645M1174 645L1175 646L1174 645M1194 645L1195 646L1194 645M408 646L409 647L408 646M520 646L521 647L520 646M613 646L614 647L613 646M632 646L633 647L632 646M950 646L951 647L950 646M969 646L970 647L969 646M277 647L278 648L277 647M1175 647L1176 648L1175 647M1193 647L1194 648L1193 647M294 648L295 649L294 648M631 648L632 649L631 648M1080 648L1081 649L1080 648M181 649L182 650L181 649M293 649L294 650L293 649M406 649L407 650L406 649M630 649L631 650L630 649M1079 649L1080 650L1079 649M1191 649L1192 650L1191 649M280 650L281 651L280 650M405 650L406 651L405 650M617 650L618 651L617 650M1066 650L1067 651L1066 650M1178 650L1179 651L1178 650M1190 650L1191 651L1190 650M170 651L171 652L170 651M282 651L283 652L282 651M290 651L291 652L290 651M393 651L394 652L393 651M514 651L515 652L514 651M619 651L620 652L619 651M963 651L964 652L963 651M1068 651L1069 652L1068 651M1180 651L1181 652L1180 651M1188 651L1189 652L1188 651M401 652L402 653L401 652z"/>
<path style="fill:#130102; stroke:none;" d="M297 728L297 768L764 768L764 728L297 728M782 728L782 764L826 764L826 728L782 728M844 728L844 768L1056 768L1056 728L844 728z"/>
<path style="fill:#51a86d; stroke:none;" d="M170 743L171 744L170 743z"/>
<path style="fill:#fcb222; stroke:none;" d="M171.004 743.573C157.885 747.319 163.936 767.093 176.999 763.566C190.391 759.95 184.221 739.799 171.004 743.573z"/>
<path style="fill:#51a86d; stroke:none;" d="M1180 743L1181 744L1180 743z"/>
<path style="fill:#fcb222; stroke:none;" d="M1181.02 743.654C1168.25 747.708 1174.97 767.472 1187.99 763.486C1200.9 759.531 1193.93 739.551 1181.02 743.654z"/>
<path style="fill:#51a86d; stroke:none;" d="M1188 743L1189 744L1188 743M1178 744L1179 745L1178 744M1190 744L1191 745L1190 744M181 745L182 746L181 745M1191 745L1192 746L1191 745M1175 747L1176 748L1175 747M1193 747L1194 748L1193 747M1174 749L1175 750L1174 749M1194 749L1195 750L1194 749M184 750L185 751L184 750M163 751L164 752L163 751M184 756L185 757L184 756M1174 757L1175 758L1174 757M164 758L165 759L164 758M1175 759L1176 760L1175 759M1193 759L1194 760L1193 759M182 760L183 761L182 760M181 761L182 762L181 761M180 762L181 763L180 762M1178 762L1179 763L1178 762M1190 762L1191 763L1190 762M169 763L170 764L169 763M178 763L179 764L178 763M886 820L887 821L886 820z"/>
<path style="fill:#fcb222; stroke:none;" d="M887 820.464C878.319 821.981 867.876 824.175 861.174 830.329C829.442 859.466 857.22 908.93 898 902.561C914.202 900.03 929.761 889.712 934.235 873C941.753 844.92 916.194 815.362 887 820.464z"/>
<path style="fill:#51a86d; stroke:none;" d="M882 821L883 822L882 821M876 822L877 823L876 822M873 823L874 824L873 823M871 824L872 825L871 824M870 825L871 826L870 825M866 826L867 827L866 826M864 827L865 828L864 827M863 828L864 829L863 828M861 829L862 830L861 829M860 830L861 831L860 830M859 831L860 832L859 831M858.333 832.667L858.667 833.333L858.333 832.667M857 834L858 835L857 834M856 835L857 836L856 835M855.333 836.667L855.667 837.333L855.333 836.667M854 838L855 839L854 838M853 839L854 840L853 839M852 840L853 841L852 840M851.333 841.667L851.667 842.333L851.333 841.667M850 843L850 846L851 846L850 843M849.333 846.667L849.667 847.333L849.333 846.667M848.333 848.667L848.667 849.333L848.333 848.667M847 850L847 855L848 855L847 850M846 855L846 865L847 865L846 855z"/>
<path style="fill:#fcb222; stroke:none;" d="M957.004 855.657C943.54 859.751 950.382 880.608 962.999 876.092C975.716 871.541 970.132 851.664 957.004 855.657z"/>
<path style="fill:#51a86d; stroke:none;" d="M1069 855L1070 856L1069 855z"/>
<path style="fill:#fcb222; stroke:none;" d="M1070 855.573C1057.31 858.562 1061.22 878.805 1074 876.424C1087.58 873.893 1083.64 852.363 1070 855.573z"/>
<path style="fill:#51a86d; stroke:none;" d="M1075 855L1076 856L1075 855M1181 855L1182 856L1181 855z"/>
<path style="fill:#fcb222; stroke:none;" d="M1182 855.587C1168.86 859.026 1173.99 880.042 1187 876.332C1200.01 872.62 1195.15 852.147 1182 855.587z"/>
<path style="fill:#51a86d; stroke:none;" d="M1187 855L1188 856L1187 855M954 856L955 857L954 856M965 856L966 857L965 856M1066 856L1067 857L1066 856M1077 856L1078 857L1077 856M1065 857L1066 858L1065 857M1177 857L1178 858L1177 857M1191 857L1192 858L1191 857M1176 858L1177 859L1176 858M1192 858L1193 859L1192 858M1063 859L1064 860L1063 859M969 860L970 861L969 860M1174 861L1175 862L1174 861M1194 861L1195 862L1194 861M949 862L950 863L949 862M1082 862L1083 863L1082 862M970 863L971 864L970 863M847 865L847 873L848 873L847 865M970.333 867.667L970.667 868.333L970.333 867.667M1082.33 868.667L1082.67 869.333L1082.33 868.667M1062 870L1063 871L1062 870M1081 871L1082 872L1081 871M951 872L952 873L951 872M968 872L969 873L968 872M848.333 873.667L848.667 874.333L848.333 873.667M952 873L953 874L952 873M967 873L968 874L967 873M1064 873L1065 874L1064 873M953 874L954 875L953 874M966 874L967 875L966 874M849.333 875.667L849.667 876.333L849.333 875.667M1067 875L1068 876L1067 875M1179 875L1180 876L1179 875M1189 875L1190 876L1189 875M957 876L958 877L957 876M962 876L963 877L962 876M1069 876L1070 877L1069 876M1074 876L1075 877L1074 876M850.333 877.667L850.667 878.333L850.333 877.667M851.333 879.667L851.667 880.333L851.333 879.667M852 881L852 884L853 884L852 881M853 884L854 885L853 884M854.333 885.667L854.667 886.333L854.333 885.667M855 887L856 888L855 887M856 888L857 889L856 888M857 889L858 890L857 889M858 890L859 891L858 890M859 891L860 892L859 891M861 892L862 893L861 892M863 893L864 894L863 893M864 894L865 895L864 894M865 895L866 896L865 895M866 896L867 897L866 896M868 897L869 898L868 897M871 898L872 899L871 898M872 899L873 900L872 899M875 900L876 901L875 900M877 901L878 902L877 901M881 902L882 903L881 902z"/>
<path style="fill:#130102; stroke:none;" d="M25 957L25 998L68 998L68 957L25 957M86 957L86 998L1272 998L1272 957L86 957M1290 957L1290 998L1334 998L1334 970L1332.97 958.603L1322 957L1290 957z"/>
</svg>
